<svg width="12" height="13" viewBox="0 0 12 13" fill="none" xmlns="http://www.w3.org/2000/svg">
<g id="bxs:up-arrow">
<path id="Vector" d="M10.4997 2.9997L1.49971 2.9997C1.40859 2.99999 1.31927 3.02512 1.24137 3.07239C1.16348 3.11966 1.09994 3.18729 1.05762 3.26798C1.01529 3.34867 0.99577 3.43938 1.00116 3.53034C1.00655 3.62131 1.03665 3.70907 1.08821 3.7842L5.58821 10.2842C5.77471 10.5537 6.22371 10.5537 6.41071 10.2842L10.9107 3.7842C10.9628 3.70923 10.9933 3.62142 10.999 3.53031C11.0047 3.43919 10.9853 3.34826 10.943 3.2674C10.9006 3.18654 10.8369 3.11883 10.7587 3.07163C10.6806 3.02444 10.591 2.99956 10.4997 2.9997Z" fill="black"/>
</g>
</svg>
